<svg xmlns="http://www.w3.org/2000/svg" viewBox="0 0 600 380" fill="none">
  
  
  <rect x="10" y="10" width="580" height="360" stroke="currentColor" stroke-width="1.25" fill="none"></rect>
  
  <line x1="300" y1="10" x2="300" y2="370" stroke="currentColor" stroke-width="1.25"></line>
  
  <circle cx="300" cy="190" r="52" stroke="currentColor" stroke-width="1.25" fill="none"></circle>
  <circle cx="300" cy="190" r="2" fill="currentColor"></circle>
  
  <rect x="10" y="100" width="96" height="180" stroke="currentColor" stroke-width="1.25" fill="none"></rect>
  <rect x="10" y="145" width="36" height="90" stroke="currentColor" stroke-width="1.25" fill="none"></rect>
  <circle cx="72" cy="190" r="2" fill="currentColor"></circle>
  <path d="M 106 160 A 40 40 0 0 1 106 220" stroke="currentColor" stroke-width="1.25" fill="none"></path>
  
  <rect x="494" y="100" width="96" height="180" stroke="currentColor" stroke-width="1.25" fill="none"></rect>
  <rect x="554" y="145" width="36" height="90" stroke="currentColor" stroke-width="1.25" fill="none"></rect>
  <circle cx="528" cy="190" r="2" fill="currentColor"></circle>
  <path d="M 494 160 A 40 40 0 0 0 494 220" stroke="currentColor" stroke-width="1.25" fill="none"></path>
  
  <path d="M 10 20 A 10 10 0 0 1 20 10" stroke="currentColor" stroke-width="1.25" fill="none"></path>
  <path d="M 580 10 A 10 10 0 0 1 590 20" stroke="currentColor" stroke-width="1.25" fill="none"></path>
  <path d="M 10 360 A 10 10 0 0 0 20 370" stroke="currentColor" stroke-width="1.25" fill="none"></path>
  <path d="M 580 370 A 10 10 0 0 0 590 360" stroke="currentColor" stroke-width="1.25" fill="none"></path>
</svg>